<svg width="41" height="40" viewBox="0 0 41 40" fill="none" xmlns="http://www.w3.org/2000/svg">
<path d="M40.5137 20C40.5137 31.0457 31.5594 40 20.5137 40C9.46798 40 0.513672 31.0457 0.513672 20C0.513672 8.95431 9.46798 0 20.5137 0C31.5594 0 40.5137 8.95431 40.5137 20ZM30.5895 12.4242C29.8572 11.6919 28.6701 11.6919 27.9378 12.4242C27.9201 12.4419 27.9035 12.4606 27.8881 12.4803L19.2072 23.5419L13.9734 18.3081C13.2411 17.5758 12.0539 17.5758 11.3217 18.3081C10.5895 19.0403 10.5895 20.2275 11.3217 20.9597L17.9378 27.5758C18.6701 28.3081 19.8572 28.3081 20.5895 27.5758C20.6058 27.5595 20.6212 27.5423 20.6356 27.5243L30.6161 15.0487C31.3216 14.3145 31.3127 13.1474 30.5895 12.4242Z" fill="#05141F"/>
</svg>
