<svg width="64" height="64" viewBox="0 0 64 64" fill="none" xmlns="http://www.w3.org/2000/svg">
<g id="Instagram">
<path id="Vector" d="M41.4264 16H22.5736C18.9431 16 16 18.9431 16 22.5736V41.4264C16 45.0569 18.9431 48 22.5736 48H41.4264C45.0569 48 48 45.0569 48 41.4264V22.5736C48 18.9431 45.0569 16 41.4264 16Z" fill="white"/>
<path id="Vector_2" d="M43.9492 27.0506C43.8942 25.7754 43.6869 24.899 43.3908 24.141C43.0862 23.3347 42.6208 22.6116 42.0032 22.0113C41.4024 21.4022 40.6748 20.929 39.8794 20.631C39.1137 20.3374 38.2422 20.1315 36.9646 20.0745C35.6827 20.0131 35.2681 20 32.0106 20C28.753 20 28.3427 20.0131 27.0608 20.0701C25.7832 20.1271 24.9075 20.3374 24.1502 20.631C23.3421 20.9377 22.6187 21.4022 22.018 22.0157C21.4088 22.6204 20.935 23.3434 20.6346 24.141C20.3427 24.9078 20.1311 25.7798 20.0762 27.055C20.0127 28.3389 20 28.7464 20 32.0066C20 35.2668 20.0127 35.6743 20.0677 36.9538C20.1227 38.229 20.33 39.1054 20.6261 39.8634C20.9307 40.6741 21.4045 41.3927 22.0137 41.9931C22.6145 42.6022 23.3421 43.0754 24.1375 43.3734C24.9032 43.667 25.7747 43.8729 27.0524 43.9299C28.3342 43.9869 28.7403 44 31.9979 44C35.2554 44 35.6658 43.9869 36.9476 43.9299C38.2253 43.8729 39.101 43.667 39.8625 43.3734C41.4744 42.7468 42.752 41.476 43.3739 39.859C43.67 39.0966 43.8773 38.2202 43.9323 36.9494C43.9873 35.6699 44 35.258 44 32.0022C44 28.7464 44 28.3345 43.9408 27.055M41.7874 36.853C41.7366 38.0274 41.5378 38.6584 41.3728 39.0834C40.9709 40.1263 40.1417 40.9545 39.0925 41.3621C38.6695 41.5242 38.0349 41.7214 36.863 41.774C35.5939 41.8309 35.2173 41.8441 32.0106 41.8441C28.8038 41.8441 28.4231 41.8309 27.1623 41.774C25.9905 41.7214 25.3559 41.5242 24.9328 41.3621C24.4125 41.1693 23.9387 40.8625 23.5537 40.4638C23.1518 40.0738 22.8472 39.6049 22.6568 39.0834C22.4918 38.6628 22.2972 38.023 22.2464 36.8574C22.1914 35.591 22.1745 35.2098 22.1745 32.0066C22.1745 28.8034 22.1914 28.4177 22.2464 27.1557C22.2972 25.9814 22.4918 25.3504 22.6568 24.9297C22.8514 24.4083 23.1518 23.935 23.5579 23.5494C23.9471 23.1506 24.4167 22.8439 24.9371 22.6511C25.3601 22.489 25.9989 22.2918 27.1666 22.2392C28.4357 22.1822 28.8123 22.1691 32.019 22.1691C35.2258 22.1691 35.6066 22.1822 36.8673 22.2392C38.0434 22.2918 38.6737 22.489 39.0968 22.6511C39.6171 22.8439 40.091 23.1506 40.4802 23.5494C40.8778 23.9394 41.1824 24.4083 41.3728 24.9297C41.5378 25.3504 41.7366 25.9901 41.7874 27.1557C41.8424 28.4221 41.8551 28.8034 41.8551 32.0066C41.8551 35.2098 41.8424 35.5866 41.7874 36.8486" fill="#05141F"/>
<path id="Vector_3" d="M32 44C28.773 44 28.3464 43.9869 27.0581 43.93C25.9134 43.8775 25.0137 43.7026 24.1436 43.3701C23.3495 43.0727 22.6146 42.5916 22.0148 41.9836C21.3981 41.3756 20.9293 40.6583 20.6251 39.8535C20.2914 38.9918 20.1183 38.0951 20.0676 36.9404C20.0127 35.6457 20 35.2171 20 32.0022C20 28.7873 20.0127 28.3368 20.0718 27.0552C20.1225 25.9092 20.2957 25.0126 20.6294 24.1422C20.9293 23.3505 21.4108 22.6113 22.0148 22.0164C22.6188 21.3997 23.3326 20.9317 24.1478 20.6255C25.0137 20.2931 25.9092 20.1181 27.0623 20.07C28.3548 20.0131 28.7856 20 32 20C35.2144 20 35.6663 20.0175 36.9504 20.0744C38.095 20.1268 38.9947 20.2974 39.8648 20.6342C40.6589 20.9317 41.3939 21.4128 41.9937 22.0208C42.6061 22.62 43.075 23.3373 43.3833 24.1509C43.717 25.0126 43.8902 25.9092 43.9409 27.064C43.9958 28.3368 44 28.7523 44 32.0022C44 35.2521 43.9873 35.6501 43.9324 36.9404C43.8817 38.0864 43.7086 38.9874 43.3749 39.8535C42.754 41.4631 41.4699 42.7447 39.8606 43.3701C38.9947 43.7026 38.095 43.8775 36.9461 43.93C35.6536 43.9869 35.2313 44 32.0042 44M32 20.0394C28.7856 20.0394 28.3548 20.0525 27.0623 20.1093C25.9134 20.1618 25.0222 20.3324 24.1605 20.6648C23.3537 20.971 22.6399 21.4347 22.0401 22.047C21.4361 22.6419 20.9588 23.3723 20.6631 24.1596C20.3295 25.0257 20.1563 25.918 20.1056 27.064C20.0465 28.3412 20.0338 28.7654 20.0338 32.0066C20.0338 35.2477 20.0465 35.6501 20.1014 36.9448C20.1521 38.0908 20.3252 38.9874 20.6589 39.8447C20.963 40.6495 21.4277 41.3625 22.0401 41.9617C22.6357 42.5697 23.3706 43.0421 24.1563 43.3395C25.0222 43.672 25.9176 43.8425 27.0581 43.895C28.3464 43.9519 28.773 43.965 31.9958 43.965C35.2186 43.965 35.6494 43.9519 36.9335 43.895C38.0824 43.8425 38.9778 43.672 39.8353 43.3395C41.4403 42.7184 42.7117 41.4456 43.3369 39.8403C43.6705 38.9787 43.8437 38.082 43.8944 36.9404C43.9493 35.6501 43.962 35.2214 43.962 32.0022C43.962 28.7829 43.962 28.3368 43.9029 27.064C43.8522 25.918 43.6832 25.0213 43.3453 24.1596C43.0412 23.3505 42.5723 22.6419 41.9641 22.0426C41.3685 21.439 40.6336 20.9623 39.8479 20.6648C38.982 20.3324 38.0908 20.1575 36.9461 20.1093C35.6663 20.0481 35.2397 20.035 31.9958 20.035M32.0084 41.848C28.8574 41.848 28.4351 41.8349 27.1637 41.778C25.9979 41.7255 25.3601 41.5287 24.9335 41.3669C24.4097 41.17 23.9324 40.8595 23.5523 40.4658C23.151 40.0722 22.8469 39.6042 22.6526 39.0837C22.4879 38.6594 22.2936 38.0208 22.2386 36.8529C22.1837 35.5539 22.1711 35.1646 22.1711 32.0109C22.1711 28.8573 22.188 28.4418 22.2386 27.1689C22.2936 26.0011 22.4879 25.3625 22.6568 24.9382C22.8511 24.4133 23.1637 23.9322 23.5607 23.556C23.9535 23.1536 24.4182 22.8518 24.9419 22.655C25.3685 22.4888 26.0063 22.292 27.1721 22.2438C28.452 22.187 28.8743 22.1739 32.0127 22.1739C35.151 22.1739 35.5818 22.187 36.8574 22.2438C38.0232 22.292 38.661 22.4888 39.0876 22.655C39.6114 22.8475 40.0929 23.158 40.4688 23.556C40.8743 23.9497 41.1742 24.4133 41.3685 24.9382C41.5333 25.3625 41.7318 26.0011 41.7825 27.1689C41.8374 28.4461 41.8501 28.8704 41.8501 32.0109C41.8501 35.1514 41.8332 35.602 41.7825 36.8442C41.7318 38.012 41.5333 38.6506 41.3685 39.0749C40.963 40.1247 40.1309 40.9557 39.0834 41.3625C38.6568 41.5243 38.019 41.7212 36.8532 41.7736C35.548 41.8305 35.1637 41.8436 32.0084 41.8436M32.0127 22.2176C28.8743 22.2176 28.452 22.2307 27.1721 22.2876C26.0106 22.3401 25.377 22.5369 24.9546 22.6987C24.4351 22.8912 23.9747 23.1886 23.5861 23.5867C23.1932 23.9628 22.8807 24.4352 22.6906 24.9601C22.5259 25.38 22.3316 26.0142 22.2809 27.1777C22.226 28.4505 22.2091 28.866 22.2091 32.0197C22.2091 35.1733 22.2218 35.5582 22.2809 36.8573C22.3316 38.0208 22.5259 38.655 22.6906 39.0749C22.8849 39.5954 23.1848 40.0547 23.5818 40.444C23.9578 40.8376 24.4351 41.1438 24.9504 41.3319C25.3728 41.4981 26.0106 41.6905 27.1721 41.743C28.4393 41.7999 28.8617 41.813 32.0127 41.813C35.1637 41.813 35.5523 41.7999 36.8532 41.743C38.019 41.6905 38.6484 41.4981 39.0708 41.3363C40.114 40.9338 40.9377 40.1072 41.3347 39.0662C41.5037 38.6463 41.698 38.012 41.7487 36.8486C41.8036 35.602 41.8163 35.2652 41.8163 32.0153C41.8163 28.7654 41.7994 28.4199 41.7487 27.1733C41.698 26.0142 41.5037 25.38 41.3347 24.9557C41.1447 24.4308 40.8448 23.9716 40.4435 23.5823C40.0676 23.193 39.5945 22.8868 39.075 22.6944C38.6526 22.5325 38.019 22.3357 36.8574 22.2832C35.5818 22.2264 35.1595 22.2132 32.0127 22.2132" fill="#05141F"/>
<path id="Vector_4" d="M32 26C28.6873 26 26 28.687 26 32C26 35.313 28.683 38 32 38C35.317 38 38 35.313 38 32C38 28.687 35.317 26 32 26ZM32 35.8942C29.8519 35.8942 28.1093 34.1505 28.1093 32C28.1093 29.8495 29.8476 28.1058 32 28.1058C34.1524 28.1058 35.895 29.8495 35.895 32C35.895 34.1505 34.1524 35.8942 32 35.8942Z" fill="#05141F"/>
<path id="Vector_5" d="M32 38C28.6925 38 26 35.3086 26 31.9978C26 28.687 28.6925 26 32 26C35.3075 26 38 28.6914 38 31.9978C38 35.3041 35.3118 38 32 38ZM32 26.0356C28.714 26.0356 26.0344 28.7092 26.0344 31.9978C26.0344 35.2863 28.7097 37.9599 32 37.9599C35.2903 37.9599 37.9656 35.2863 37.9656 31.9978C37.9656 28.7092 35.2903 26.0356 32 26.0356ZM32 35.8968C29.8495 35.8968 28.1032 34.15 28.1032 31.9978C28.1032 29.8455 29.8495 28.1032 32 28.1032C34.1505 28.1032 35.8968 29.85 35.8968 31.9978C35.8968 34.1456 34.1505 35.8968 32 35.8968ZM32 28.1389C29.871 28.1389 28.1376 29.8723 28.1376 31.9978C28.1376 34.1233 29.871 35.8611 32 35.8611C34.129 35.8611 35.8624 34.1277 35.8624 31.9978C35.8624 29.8678 34.129 28.1389 32 28.1389Z" fill="#05141F"/>
<path id="Vector_6" d="M39 24C38.4482 24 38 24.4487 38 25.0016C38 25.5545 38.4482 26 39 26C39.5518 26 40 25.5545 40 25.0016C40 24.4487 39.5518 24 39 24Z" fill="#05141F"/>
<path id="Vector_7" d="M39 26C38.4484 26 38 25.5499 38 24.9977C38 24.4455 38.4484 24 39 24C39.5516 24 40 24.4455 40 24.9977C40 25.5499 39.5516 26 39 26ZM39 24.0371C38.4664 24.0371 38.0359 24.4687 38.0359 25.0023C38.0359 25.536 38.4664 25.9675 39 25.9675C39.5336 25.9675 39.9641 25.536 39.9641 25.0023C39.9641 24.4687 39.5336 24.0371 39 24.0371Z" fill="#05141F"/>
</g>
</svg>
